<svg width="22" height="25" viewBox="0 0 22 25" fill="none" xmlns="http://www.w3.org/2000/svg">
<path d="M0 6.61761V7.7351C0 7.75256 0 7.77002 0 7.80494C0 7.80494 0 7.83986 0 7.85732C0 7.89224 0 7.92716 0 7.96208C0 7.99701 -4.36741e-06 8.01447 0.0178835 8.03193C0.0178835 8.03193 0.0178835 8.04939 0.0178835 8.06685C0.0178835 8.06685 0.0178835 8.10177 0.0178835 8.11923C0.0178835 8.11923 0.0178835 8.13669 0.0178835 8.15415C0.0178835 8.15415 0.0178835 8.17161 0.0178835 8.18907C0.0178835 8.18907 0.01789 8.224 0.0357778 8.224C0.0357778 8.224 0.0357778 8.224 0.0357778 8.24146C0.0357778 8.24146 0.0357735 8.25892 0.0536613 8.27638C0.160988 8.45098 0.304091 8.57321 0.500857 8.66051L10.053 13.113C10.2318 13.2003 10.4465 13.2352 10.6433 13.2352H10.6611C10.8579 13.2352 11.0547 13.2003 11.2514 13.113L20.8035 8.66051C20.9824 8.57321 21.1434 8.43352 21.2507 8.27638C21.2507 8.27638 21.2507 8.24146 21.2686 8.24146C21.2686 8.24146 21.2686 8.24146 21.2686 8.224C21.2686 8.224 21.2686 8.18907 21.2865 8.18907C21.2865 8.18907 21.2865 8.17161 21.2865 8.15415C21.2865 8.15415 21.2865 8.13669 21.2865 8.11923C21.2865 8.11923 21.2865 8.08431 21.2865 8.06685C21.2865 8.06685 21.2865 8.04939 21.2865 8.03193C21.2865 8.01447 21.2865 7.97955 21.3044 7.96208C21.3044 7.92716 21.3044 7.9097 21.3044 7.85732C21.3044 7.85732 21.3044 7.8224 21.3044 7.80494C21.3044 7.78748 21.3044 7.77002 21.3044 7.75256C21.3044 7.75256 21.3044 6.65253 21.3044 6.63507V5.51759C21.3044 5.50012 21.3044 5.48266 21.3044 5.44774C21.3044 5.44774 21.3044 5.41282 21.3044 5.39536C21.3044 5.36044 21.3044 5.32552 21.3044 5.2906C21.3044 5.25567 21.3044 5.23821 21.2865 5.22075C21.2865 5.22075 21.2865 5.20329 21.2865 5.18583C21.2865 5.18583 21.2865 5.15091 21.2865 5.13345C21.2865 5.13345 21.2865 5.11599 21.2865 5.09853C21.2865 5.09853 21.2865 5.08107 21.2865 5.06361C21.2865 5.06361 21.2865 5.02869 21.2686 5.02869C21.2686 5.02869 21.2686 5.02869 21.2686 5.01122C21.2686 5.01122 21.2686 4.99376 21.2507 4.9763C21.1434 4.8017 21.0003 4.67947 20.8035 4.59217L11.3409 0.122225C11.162 0.0349214 10.9473 0 10.7506 0H10.7327C10.5359 0 10.3392 0.0349214 10.1424 0.122225L0.590296 4.57471C0.411418 4.66201 0.250427 4.8017 0.1431 4.95884C0.1431 4.95884 0.143105 4.99376 0.125217 4.99376C0.125217 4.99376 0.125217 4.99376 0.125217 5.01122C0.125217 5.01122 0.12521 5.04615 0.107323 5.04615C0.107323 5.04615 0.107323 5.06361 0.107323 5.08107C0.107323 5.08107 0.107323 5.09853 0.107323 5.11599C0.107323 5.11599 0.107323 5.15091 0.107323 5.16837C0.107323 5.16837 0.107323 5.18583 0.107323 5.20329C0.107323 5.22075 0.107327 5.25567 0.0894391 5.27314C0.0894391 5.30806 0.0894391 5.32552 0.0894391 5.3779C0.0894391 5.3779 0.0894391 5.41282 0.0894391 5.43028C0.0894391 5.44774 0.0894391 5.4652 0.0894391 5.48266C0.0894391 5.48266 0.0894391 6.58269 0.0894391 6.60015L0 6.61761Z" fill="url(#paint0_linear_1069_19005)"/>
<path d="M10.7506 0C10.9474 0 11.1442 0.0349214 11.3409 0.122225L20.893 4.57471C21.2687 4.74931 21.5012 5.11599 21.4833 5.50012V6.61761V7.7351C21.4833 7.77002 21.4833 7.80494 21.4833 7.83986C21.4833 7.87478 21.4833 7.9097 21.4833 7.94462C21.4654 8.06685 21.4118 8.17161 21.3581 8.27638C21.5012 7.94463 21.2866 7.89224 20.9109 7.71764L11.3588 3.26515C11.1799 3.17785 10.9653 3.14293 10.7685 3.14293C10.5718 3.14293 10.375 3.17785 10.1782 3.26515L0.626123 7.71764C0.250479 7.89224 0.0537131 7.94463 0.178928 8.27638C0.125264 8.17161 0.0715988 8.06685 0.0537109 7.94462C0.0537109 7.9097 0.0537109 7.89224 0.0537109 7.83986C0.0537109 7.80494 0.0537109 7.77002 0.0537109 7.7351V6.61761V5.50012C0.0537109 5.09853 0.28625 4.73185 0.644007 4.57471L10.1424 0.122225C10.3392 0.0349214 10.536 0 10.7327 0" fill="url(#paint1_linear_1069_19005)"/>
<path d="M0 12.4148V13.5323C0 13.5498 0 13.5673 0 13.6022C0 13.6022 0 13.6371 0 13.6546C0 13.6895 0 13.7244 0 13.7593C0 13.7942 -4.36741e-06 13.8117 0.0178835 13.8292C0.0178835 13.8292 0.0178835 13.8466 0.0178835 13.8641C0.0178835 13.8641 0.0178835 13.899 0.0178835 13.9165C0.0178835 13.9165 0.0178835 13.9339 0.0178835 13.9514C0.0178835 13.9514 0.0178835 13.9689 0.0178835 13.9863C0.0178835 13.9863 0.01789 14.0212 0.0357778 14.0212C0.0357778 14.0212 0.0357778 14.0212 0.0357778 14.0387C0.0357778 14.0387 0.0357735 14.0562 0.0536613 14.0736C0.160988 14.2482 0.304091 14.3704 0.500857 14.4578L10.053 18.9102C10.2318 18.9975 10.4465 19.0325 10.6433 19.0325H10.6611C10.8579 19.0325 11.0547 18.9975 11.2514 18.9102L20.8035 14.4578C20.9824 14.3704 21.1434 14.2308 21.2507 14.0736C21.2507 14.0736 21.2507 14.0387 21.2686 14.0387C21.2686 14.0387 21.2686 14.0387 21.2686 14.0212C21.2686 14.0212 21.2686 13.9863 21.2865 13.9863C21.2865 13.9863 21.2865 13.9689 21.2865 13.9514C21.2865 13.9514 21.2865 13.9339 21.2865 13.9165C21.2865 13.9165 21.2865 13.8815 21.2865 13.8641C21.2865 13.8641 21.2865 13.8466 21.2865 13.8292C21.2865 13.8117 21.2865 13.7768 21.3044 13.7593C21.3044 13.7244 21.3044 13.7069 21.3044 13.6546C21.3044 13.6546 21.3044 13.6196 21.3044 13.6022C21.3044 13.5847 21.3044 13.5673 21.3044 13.5498C21.3044 13.5498 21.3044 12.4498 21.3044 12.4323V11.3148C21.3044 11.2974 21.3044 11.2799 21.3044 11.245C21.3044 11.245 21.3044 11.2101 21.3044 11.1926C21.3044 11.1577 21.3044 11.1228 21.3044 11.0878C21.3044 11.0529 21.3044 11.0355 21.2865 11.018C21.2865 11.018 21.2865 11.0005 21.2865 10.9831C21.2865 10.9831 21.2865 10.9481 21.2865 10.9307C21.2865 10.9307 21.2865 10.9132 21.2865 10.8958C21.2865 10.8958 21.2865 10.8783 21.2865 10.8608C21.2865 10.8608 21.2865 10.8259 21.2686 10.8259C21.2686 10.8259 21.2686 10.8259 21.2686 10.8085C21.2686 10.8085 21.2686 10.791 21.2507 10.7735C21.1434 10.5989 21.0003 10.4767 20.8035 10.3894L11.2514 5.93692C11.0726 5.84962 10.8579 5.8147 10.6611 5.8147H10.6433C10.4465 5.8147 10.2497 5.84962 10.053 5.93692L0.500857 10.3894C0.321979 10.4767 0.160988 10.6164 0.0536613 10.7735C0.0536613 10.7735 0.0536657 10.8085 0.0357778 10.8085C0.0357778 10.8085 0.0357778 10.8085 0.0357778 10.8259C0.0357778 10.8259 0.0357713 10.8608 0.0178835 10.8608C0.0178835 10.8608 0.0178835 10.8783 0.0178835 10.8958C0.0178835 10.8958 0.0178835 10.9132 0.0178835 10.9307C0.0178835 10.9307 0.0178835 10.9656 0.0178835 10.9831C0.0178835 10.9831 0.0178835 11.0005 0.0178835 11.018C0.0178835 11.0355 0.0178878 11.0704 0 11.0878C0 11.1228 0 11.1402 0 11.1926C0 11.1926 0 11.2275 0 11.245C0 11.2624 0 11.2799 0 11.2974C0 11.2974 0 12.3974 0 12.4148Z" fill="url(#paint2_linear_1069_19005)"/>
<path d="M10.7506 5.797C10.9474 5.797 11.1442 5.83192 11.3409 5.91922L20.893 10.3717C21.2687 10.5463 21.5012 10.913 21.4833 11.2971V12.4146V13.5321C21.4833 13.567 21.4833 13.6019 21.4833 13.6369C21.4833 13.6718 21.4833 13.7067 21.4833 13.7416C21.4654 13.8638 21.4118 13.9686 21.3581 14.0734C21.5012 13.7416 21.2866 13.6892 20.9109 13.5146L11.3588 9.06215C11.1799 8.97485 10.9653 8.93993 10.7685 8.93993C10.5718 8.93993 10.375 8.97485 10.1782 9.06215L0.626123 13.5146C0.250479 13.6892 0.0537131 13.7416 0.178928 14.0734C0.125264 13.9686 0.0715988 13.8638 0.0537109 13.7416C0.0537109 13.7067 0.0537109 13.6892 0.0537109 13.6369C0.0537109 13.6019 0.0537109 13.567 0.0537109 13.5321V12.4146V11.2971C0.0537109 10.8955 0.28625 10.5289 0.644007 10.3717L10.1961 5.91922C10.375 5.83192 10.5896 5.797 10.7864 5.797" fill="url(#paint3_linear_1069_19005)"/>
<path d="M0 18.2118V19.3293C0 19.3468 0 19.3643 0 19.3992C0 19.3992 0 19.4341 0 19.4516C0 19.4865 0 19.5214 0 19.5563C0 19.5912 -4.36741e-06 19.6087 0.0178835 19.6262C0.0178835 19.6262 0.0178835 19.6436 0.0178835 19.6611C0.0178835 19.6611 0.0178835 19.696 0.0178835 19.7135C0.0178835 19.7135 0.0178835 19.7309 0.0178835 19.7484C0.0178835 19.7484 0.0178835 19.7658 0.0178835 19.7833C0.0178835 19.7833 0.01789 19.8182 0.0357778 19.8182C0.0357778 19.8182 0.0357778 19.8182 0.0357778 19.8357C0.0357778 19.8357 0.0357735 19.8532 0.0536613 19.8706C0.160988 20.0452 0.304091 20.1674 0.500857 20.2547L10.053 24.7072C10.2318 24.7945 10.4465 24.8295 10.6433 24.8295H10.6611C10.8579 24.8295 11.0547 24.7945 11.2514 24.7072L20.8035 20.2547C20.9824 20.1674 21.1434 20.0278 21.2507 19.8706C21.2507 19.8706 21.2507 19.8357 21.2686 19.8357C21.2686 19.8357 21.2686 19.8357 21.2686 19.8182C21.2686 19.8182 21.2686 19.7833 21.2865 19.7833C21.2865 19.7833 21.2865 19.7658 21.2865 19.7484C21.2865 19.7484 21.2865 19.7309 21.2865 19.7135C21.2865 19.7135 21.2865 19.6785 21.2865 19.6611C21.2865 19.6611 21.2865 19.6436 21.2865 19.6262C21.2865 19.6087 21.2865 19.5738 21.3044 19.5563C21.3044 19.5214 21.3044 19.5039 21.3044 19.4516C21.3044 19.4516 21.3044 19.4166 21.3044 19.3992C21.3044 19.3817 21.3044 19.3643 21.3044 19.3468C21.3044 19.3468 21.3044 18.2468 21.3044 18.2293V17.1118C21.3044 17.0944 21.3044 17.0769 21.3044 17.042C21.3044 17.042 21.3044 17.0071 21.3044 16.9896C21.3044 16.9547 21.3044 16.9198 21.3044 16.8848C21.3044 16.8499 21.3044 16.8324 21.2865 16.815C21.2865 16.815 21.2865 16.7975 21.2865 16.7801C21.2865 16.7801 21.2865 16.7451 21.2865 16.7277C21.2865 16.7277 21.2865 16.7102 21.2865 16.6928C21.2865 16.6928 21.2865 16.6753 21.2865 16.6578C21.2865 16.6578 21.2865 16.6229 21.2686 16.6229C21.2686 16.6229 21.2686 16.6229 21.2686 16.6055C21.2686 16.6055 21.2686 16.588 21.2507 16.5705C21.1434 16.3959 21.0003 16.2737 20.8035 16.1864L11.2514 11.7339C11.0726 11.6466 10.8579 11.6117 10.6611 11.6117H10.6433C10.4465 11.6117 10.2497 11.6466 10.053 11.7339L0.500857 16.1864C0.321979 16.2737 0.160988 16.4134 0.0536613 16.5705C0.0536613 16.5705 0.0536657 16.6055 0.0357778 16.6055C0.0357778 16.6055 0.0357778 16.6055 0.0357778 16.6229C0.0357778 16.6229 0.0357713 16.6578 0.0178835 16.6578C0.0178835 16.6578 0.0178835 16.6753 0.0178835 16.6928C0.0178835 16.6928 0.0178835 16.7102 0.0178835 16.7277C0.0178835 16.7277 0.0178835 16.7626 0.0178835 16.7801C0.0178835 16.7801 0.0178835 16.7975 0.0178835 16.815C0.0178835 16.8324 0.0178878 16.8674 0 16.8848C0 16.9198 0 16.9372 0 16.9896C0 16.9896 0 17.0245 0 17.042C0 17.0594 0 17.0769 0 17.0944C0 17.0944 0 18.1944 0 18.2118Z" fill="url(#paint4_linear_1069_19005)"/>
<path d="M10.7506 11.594C10.9474 11.594 11.1442 11.6289 11.3409 11.7162L20.893 16.1687C21.2687 16.3433 21.5012 16.71 21.4833 17.0941V18.2116V19.3291C21.4833 19.364 21.4833 19.3989 21.4833 19.4339C21.4833 19.4688 21.4833 19.5037 21.4833 19.5386C21.4654 19.6608 21.4118 19.7656 21.3581 19.8704C21.5012 19.5386 21.2866 19.4862 20.9109 19.3116L11.3588 14.8591C11.1799 14.7718 10.9653 14.7369 10.7685 14.7369C10.5718 14.7369 10.375 14.7718 10.1782 14.8591L0.626123 19.3116C0.250479 19.4862 0.0537131 19.5386 0.178928 19.8704C0.125264 19.7656 0.0715988 19.6608 0.0537109 19.5386C0.0537109 19.5037 0.0537109 19.4862 0.0537109 19.4339C0.0537109 19.3989 0.0537109 19.364 0.0537109 19.3291V18.2116V17.0941C0.0537109 16.6925 0.28625 16.3258 0.644007 16.1687L10.1961 11.7162C10.375 11.6289 10.5896 11.594 10.7864 11.594" fill="url(#paint5_linear_1069_19005)"/>
<defs>
<linearGradient id="paint0_linear_1069_19005" x1="21.5012" y1="6.63507" x2="0" y2="6.63507" gradientUnits="userSpaceOnUse">
<stop stop-color="#A9F39B"/>
<stop offset="1" stop-color="#00B100"/>
</linearGradient>
<linearGradient id="paint1_linear_1069_19005" x1="21.5012" y1="4.13819" x2="4.77985e-05" y2="4.13819" gradientUnits="userSpaceOnUse">
<stop stop-color="#00B100"/>
<stop offset="1" stop-color="#A9F39B"/>
</linearGradient>
<linearGradient id="paint2_linear_1069_19005" x1="-2707.32" y1="12.4323" x2="-2707.5" y2="12.4323" gradientUnits="userSpaceOnUse">
<stop stop-color="#A9F39B"/>
<stop offset="1" stop-color="#00B100"/>
</linearGradient>
<linearGradient id="paint3_linear_1069_19005" x1="-2707.32" y1="9.93519" x2="-2707.5" y2="9.93519" gradientUnits="userSpaceOnUse">
<stop stop-color="#00B100"/>
<stop offset="1" stop-color="#A9F39B"/>
</linearGradient>
<linearGradient id="paint4_linear_1069_19005" x1="-2707.32" y1="18.2293" x2="-2707.5" y2="18.2293" gradientUnits="userSpaceOnUse">
<stop stop-color="#A9F39B"/>
<stop offset="1" stop-color="#00B100"/>
</linearGradient>
<linearGradient id="paint5_linear_1069_19005" x1="-2707.32" y1="15.7322" x2="-2707.5" y2="15.7322" gradientUnits="userSpaceOnUse">
<stop stop-color="#00B100"/>
<stop offset="1" stop-color="#A9F39B"/>
</linearGradient>
</defs>
</svg>
