<svg width="127" height="70" viewBox="0 0 127 70" fill="none" xmlns="http://www.w3.org/2000/svg">
<g clip-path="url(#clip0_1069_18998)">
<path d="M21.7337 43.8959V24.8987H25.6154V43.9483C25.6154 46.096 25.1861 48.2262 24.3096 50.3389C23.4509 52.4517 22.0557 54.1978 20.1238 55.6121C18.2098 57.0264 15.7592 57.7423 12.8077 57.7423C9.85619 57.7423 7.36978 57.0264 5.45579 55.5946C3.54179 54.1628 2.16443 52.3993 1.30581 50.2866C0.447196 48.1738 0 46.0611 0 43.9483V24.8987H3.88166V43.8959C3.88166 45.6245 4.20364 47.2833 4.82971 48.8722C5.45579 50.4786 6.43962 51.7707 7.7812 52.8009C9.12279 53.8136 10.8042 54.32 12.8077 54.32C14.8111 54.32 16.4926 53.8136 17.8342 52.8009C19.1757 51.7882 20.1596 50.4786 20.7857 48.8722C21.4117 47.2659 21.7337 45.6071 21.7337 43.8959Z" fill="#031E6B"/>
<path d="M51.9463 51.6833C51.2129 53.4643 50.0681 54.9135 48.5476 56.0485C47.0272 57.1659 45.1311 57.7247 42.8951 57.7247C40.6591 57.7247 38.9061 57.2183 37.5645 56.2056C36.205 55.1929 35.1675 53.8659 34.452 52.242H33.8438C34.291 53.9357 34.5057 55.7342 34.5057 57.6374V69.9996H30.624V34.6765H34.5057V35.1305C34.5057 35.8639 34.4341 36.6321 34.3089 37.4353C34.1837 38.2385 34.0227 38.937 33.8438 39.5655H34.452C34.5415 39.3735 34.6667 39.129 34.8277 38.8322C35.2927 37.9068 35.883 37.1036 36.5986 36.4052C37.3141 35.7067 38.1906 35.1654 39.2638 34.7464C40.3371 34.3273 41.5714 34.1178 43.0024 34.1178C45.2026 34.1178 47.0629 34.6765 48.5834 35.794C50.1039 36.9115 51.2129 38.3782 51.9642 40.1592C52.6976 41.9402 53.0732 43.8609 53.0732 45.9212C53.0732 47.9816 52.6976 49.9023 51.9642 51.6833H51.9463ZM47.2239 39.8973C45.9181 38.3084 44.1114 37.5226 41.8218 37.5226C39.5322 37.5226 38.9598 37.8893 37.8507 38.6227C36.7417 39.356 35.9009 40.3687 35.3285 41.6434C34.7382 42.918 34.4699 44.3498 34.5057 45.9038C34.5415 48.3308 35.2033 50.3388 36.4912 51.9277C37.7792 53.5167 39.5679 54.3024 41.8218 54.3024C44.0757 54.3024 44.6839 53.9357 45.7929 53.2024C46.9019 52.469 47.7427 51.4563 48.3151 50.1817C48.9054 48.907 49.1916 47.4752 49.1916 45.9212C49.1916 43.4942 48.5297 41.4862 47.2239 39.8973Z" fill="#031E6B"/>
<path d="M60.3892 24.8987V57.1835H56.5076V24.8987H60.3892Z" fill="#031E6B"/>
<path d="M70.2634 36.1435V57.1836H66.3817V38.9197C66.3817 38.7102 66.3102 38.5181 66.1492 38.3435C65.9882 38.1689 65.7914 38.0816 65.541 38.0816H63.6091V34.6768H68.7072C69.1544 34.6768 69.5121 34.8164 69.8162 35.1133C70.1203 35.4101 70.2634 35.7593 70.2634 36.1435ZM68.2242 28.3036C68.7966 28.3036 69.2796 28.0941 69.7089 27.675C70.1382 27.256 70.3528 26.7671 70.3528 26.2258C70.3528 25.6845 70.1382 25.1956 69.7089 24.7765C69.2796 24.3575 68.7787 24.1479 68.2242 24.1479C67.6697 24.1479 67.0973 24.3575 66.6679 24.7765C66.2208 25.1956 66.0061 25.6845 66.0061 26.2258C66.0061 26.7671 66.2208 27.3083 66.6679 27.7099C67.1151 28.1115 67.6339 28.3036 68.2242 28.3036Z" fill="#031E6B"/>
<path d="M79.7082 38.0814V57.1834H75.8265V38.0814H72.4636V34.6766H75.8265V32.9654C75.8265 31.6384 76.0948 30.3638 76.6136 29.1066C77.1323 27.8669 77.9552 26.8542 79.1 26.0684C80.2269 25.2827 81.658 24.8986 83.3573 24.8986H86.2372V28.3034H83.2679C82.1052 28.3034 81.2287 28.705 80.6205 29.5257C80.0302 30.3463 79.7261 31.2892 79.7261 32.3543V34.6591H90.262V24.8811H94.1437V34.6591H100.673V38.0639H94.1437V50.1991C94.1437 51.1769 94.4835 52.0151 95.1812 52.7135C95.8788 53.4119 96.7016 53.7437 97.6854 53.7437H100.655V57.1485H97.2919C95.843 57.1485 94.5909 56.8342 93.5355 56.2056C92.4801 55.577 91.6751 54.7215 91.1027 53.6738C90.5303 52.6087 90.2441 51.4738 90.2441 50.2341V38.0639H79.7082V38.0814Z" fill="#031E6B"/>
<path d="M105.037 6.61761V7.7351C105.037 7.75256 105.037 7.77002 105.037 7.80494C105.037 7.80494 105.037 7.83986 105.037 7.85732C105.037 7.89224 105.037 7.92716 105.037 7.96208C105.037 7.99701 105.037 8.01447 105.055 8.03193C105.055 8.03193 105.055 8.04939 105.055 8.06685C105.055 8.06685 105.055 8.10177 105.055 8.11923C105.055 8.11923 105.055 8.13669 105.055 8.15415C105.055 8.15415 105.055 8.17161 105.055 8.18907C105.055 8.18907 105.055 8.224 105.073 8.224C105.073 8.224 105.073 8.224 105.073 8.24146C105.073 8.24146 105.073 8.25892 105.091 8.27638C105.198 8.45098 105.341 8.57321 105.538 8.66051L115.09 13.113C115.269 13.2003 115.484 13.2352 115.68 13.2352H115.698C115.895 13.2352 116.092 13.2003 116.289 13.113L125.841 8.66051C126.02 8.57321 126.181 8.43352 126.288 8.27638C126.288 8.27638 126.288 8.24146 126.306 8.24146C126.306 8.24146 126.306 8.24146 126.306 8.224C126.306 8.224 126.306 8.18907 126.324 8.18907C126.324 8.18907 126.324 8.17161 126.324 8.15415C126.324 8.15415 126.324 8.13669 126.324 8.11923C126.324 8.11923 126.324 8.08431 126.324 8.06685C126.324 8.06685 126.324 8.04939 126.324 8.03193C126.324 8.01447 126.324 7.97955 126.342 7.96208C126.342 7.92716 126.342 7.9097 126.342 7.85732C126.342 7.85732 126.342 7.8224 126.342 7.80494C126.342 7.78748 126.342 7.77002 126.342 7.75256C126.342 7.75256 126.342 6.65253 126.342 6.63507V5.51759C126.342 5.50012 126.342 5.48266 126.342 5.44774C126.342 5.44774 126.342 5.41282 126.342 5.39536C126.342 5.36044 126.342 5.32552 126.342 5.2906C126.342 5.25567 126.342 5.23821 126.324 5.22075C126.324 5.22075 126.324 5.20329 126.324 5.18583C126.324 5.18583 126.324 5.15091 126.324 5.13345C126.324 5.13345 126.324 5.11599 126.324 5.09853C126.324 5.09853 126.324 5.08107 126.324 5.06361C126.324 5.06361 126.324 5.02869 126.306 5.02869C126.306 5.02869 126.306 5.02869 126.306 5.01122C126.306 5.01122 126.306 4.99376 126.288 4.9763C126.181 4.8017 126.037 4.67947 125.841 4.59217L116.378 0.122225C116.199 0.0349214 115.984 0 115.788 0H115.77C115.573 0 115.376 0.0349214 115.18 0.122225L105.627 4.57471C105.449 4.66201 105.288 4.8017 105.18 4.95884C105.18 4.95884 105.18 4.99376 105.162 4.99376C105.162 4.99376 105.162 4.99376 105.162 5.01122C105.162 5.01122 105.162 5.04615 105.144 5.04615C105.144 5.04615 105.144 5.06361 105.144 5.08107C105.144 5.08107 105.144 5.09853 105.144 5.11599C105.144 5.11599 105.144 5.15091 105.144 5.16837C105.144 5.16837 105.144 5.18583 105.144 5.20329C105.144 5.22075 105.144 5.25567 105.127 5.27314C105.127 5.30806 105.127 5.32552 105.127 5.3779C105.127 5.3779 105.127 5.41282 105.127 5.43028C105.127 5.44774 105.127 5.4652 105.127 5.48266C105.127 5.48266 105.127 6.58269 105.127 6.60015L105.037 6.61761Z" fill="url(#paint0_linear_1069_18998)"/>
<path d="M115.788 0C115.985 0 116.181 0.0349214 116.378 0.122225L125.93 4.57471C126.306 4.74931 126.538 5.11599 126.52 5.50012V6.61761V7.7351C126.52 7.77002 126.52 7.80494 126.52 7.83986C126.52 7.87478 126.52 7.9097 126.52 7.94462C126.503 8.06685 126.449 8.17161 126.395 8.27638C126.538 7.94463 126.324 7.89224 125.948 7.71764L116.396 3.26515C116.217 3.17785 116.002 3.14293 115.806 3.14293C115.609 3.14293 115.412 3.17785 115.215 3.26515L105.663 7.71764C105.288 7.89224 105.091 7.94463 105.216 8.27638C105.162 8.17161 105.109 8.06685 105.091 7.94462C105.091 7.9097 105.091 7.89224 105.091 7.83986C105.091 7.80494 105.091 7.77002 105.091 7.7351V6.61761V5.50012C105.091 5.09853 105.323 4.73185 105.681 4.57471L115.18 0.122225C115.376 0.0349214 115.573 0 115.77 0" fill="url(#paint1_linear_1069_18998)"/>
<path d="M105.037 12.4148V13.5323C105.037 13.5498 105.037 13.5673 105.037 13.6022C105.037 13.6022 105.037 13.6371 105.037 13.6546C105.037 13.6895 105.037 13.7244 105.037 13.7593C105.037 13.7942 105.037 13.8117 105.055 13.8292C105.055 13.8292 105.055 13.8466 105.055 13.8641C105.055 13.8641 105.055 13.899 105.055 13.9165C105.055 13.9165 105.055 13.9339 105.055 13.9514C105.055 13.9514 105.055 13.9689 105.055 13.9863C105.055 13.9863 105.055 14.0212 105.073 14.0212C105.073 14.0212 105.073 14.0212 105.073 14.0387C105.073 14.0387 105.073 14.0562 105.091 14.0736C105.198 14.2482 105.341 14.3704 105.538 14.4578L115.09 18.9102C115.269 18.9975 115.484 19.0325 115.68 19.0325H115.698C115.895 19.0325 116.092 18.9975 116.289 18.9102L125.841 14.4578C126.02 14.3704 126.181 14.2308 126.288 14.0736C126.288 14.0736 126.288 14.0387 126.306 14.0387C126.306 14.0387 126.306 14.0387 126.306 14.0212C126.306 14.0212 126.306 13.9863 126.324 13.9863C126.324 13.9863 126.324 13.9689 126.324 13.9514C126.324 13.9514 126.324 13.9339 126.324 13.9165C126.324 13.9165 126.324 13.8815 126.324 13.8641C126.324 13.8641 126.324 13.8466 126.324 13.8292C126.324 13.8117 126.324 13.7768 126.342 13.7593C126.342 13.7244 126.342 13.7069 126.342 13.6546C126.342 13.6546 126.342 13.6196 126.342 13.6022C126.342 13.5847 126.342 13.5673 126.342 13.5498C126.342 13.5498 126.342 12.4498 126.342 12.4323V11.3148C126.342 11.2974 126.342 11.2799 126.342 11.245C126.342 11.245 126.342 11.2101 126.342 11.1926C126.342 11.1577 126.342 11.1228 126.342 11.0878C126.342 11.0529 126.342 11.0355 126.324 11.018C126.324 11.018 126.324 11.0005 126.324 10.9831C126.324 10.9831 126.324 10.9481 126.324 10.9307C126.324 10.9307 126.324 10.9132 126.324 10.8958C126.324 10.8958 126.324 10.8783 126.324 10.8608C126.324 10.8608 126.324 10.8259 126.306 10.8259C126.306 10.8259 126.306 10.8259 126.306 10.8085C126.306 10.8085 126.306 10.791 126.288 10.7735C126.181 10.5989 126.037 10.4767 125.841 10.3894L116.289 5.93692C116.11 5.84962 115.895 5.8147 115.698 5.8147H115.68C115.484 5.8147 115.287 5.84962 115.09 5.93692L105.538 10.3894C105.359 10.4767 105.198 10.6164 105.091 10.7735C105.091 10.7735 105.091 10.8085 105.073 10.8085C105.073 10.8085 105.073 10.8085 105.073 10.8259C105.073 10.8259 105.073 10.8608 105.055 10.8608C105.055 10.8608 105.055 10.8783 105.055 10.8958C105.055 10.8958 105.055 10.9132 105.055 10.9307C105.055 10.9307 105.055 10.9656 105.055 10.9831C105.055 10.9831 105.055 11.0005 105.055 11.018C105.055 11.0355 105.055 11.0704 105.037 11.0878C105.037 11.1228 105.037 11.1402 105.037 11.1926C105.037 11.1926 105.037 11.2275 105.037 11.245C105.037 11.2624 105.037 11.2799 105.037 11.2974C105.037 11.2974 105.037 12.3974 105.037 12.4148Z" fill="url(#paint2_linear_1069_18998)"/>
<path d="M115.788 5.797C115.985 5.797 116.181 5.83192 116.378 5.91922L125.93 10.3717C126.306 10.5463 126.538 10.913 126.52 11.2971V12.4146V13.5321C126.52 13.567 126.52 13.6019 126.52 13.6369C126.52 13.6718 126.52 13.7067 126.52 13.7416C126.503 13.8638 126.449 13.9686 126.395 14.0734C126.538 13.7416 126.324 13.6892 125.948 13.5146L116.396 9.06215C116.217 8.97485 116.002 8.93993 115.806 8.93993C115.609 8.93993 115.412 8.97485 115.215 9.06215L105.663 13.5146C105.288 13.6892 105.091 13.7416 105.216 14.0734C105.162 13.9686 105.109 13.8638 105.091 13.7416C105.091 13.7067 105.091 13.6892 105.091 13.6369C105.091 13.6019 105.091 13.567 105.091 13.5321V12.4146V11.2971C105.091 10.8955 105.323 10.5289 105.681 10.3717L115.233 5.91922C115.412 5.83192 115.627 5.797 115.824 5.797" fill="url(#paint3_linear_1069_18998)"/>
<path d="M105.037 18.2118V19.3293C105.037 19.3468 105.037 19.3643 105.037 19.3992C105.037 19.3992 105.037 19.4341 105.037 19.4516C105.037 19.4865 105.037 19.5214 105.037 19.5563C105.037 19.5912 105.037 19.6087 105.055 19.6262C105.055 19.6262 105.055 19.6436 105.055 19.6611C105.055 19.6611 105.055 19.696 105.055 19.7135C105.055 19.7135 105.055 19.7309 105.055 19.7484C105.055 19.7484 105.055 19.7658 105.055 19.7833C105.055 19.7833 105.055 19.8182 105.073 19.8182C105.073 19.8182 105.073 19.8182 105.073 19.8357C105.073 19.8357 105.073 19.8532 105.091 19.8706C105.198 20.0452 105.341 20.1674 105.538 20.2547L115.09 24.7072C115.269 24.7945 115.484 24.8295 115.68 24.8295H115.698C115.895 24.8295 116.092 24.7945 116.289 24.7072L125.841 20.2547C126.02 20.1674 126.181 20.0278 126.288 19.8706C126.288 19.8706 126.288 19.8357 126.306 19.8357C126.306 19.8357 126.306 19.8357 126.306 19.8182C126.306 19.8182 126.306 19.7833 126.324 19.7833C126.324 19.7833 126.324 19.7658 126.324 19.7484C126.324 19.7484 126.324 19.7309 126.324 19.7135C126.324 19.7135 126.324 19.6785 126.324 19.6611C126.324 19.6611 126.324 19.6436 126.324 19.6262C126.324 19.6087 126.324 19.5738 126.342 19.5563C126.342 19.5214 126.342 19.5039 126.342 19.4516C126.342 19.4516 126.342 19.4166 126.342 19.3992C126.342 19.3817 126.342 19.3643 126.342 19.3468C126.342 19.3468 126.342 18.2468 126.342 18.2293V17.1118C126.342 17.0944 126.342 17.0769 126.342 17.042C126.342 17.042 126.342 17.0071 126.342 16.9896C126.342 16.9547 126.342 16.9198 126.342 16.8848C126.342 16.8499 126.342 16.8324 126.324 16.815C126.324 16.815 126.324 16.7975 126.324 16.7801C126.324 16.7801 126.324 16.7451 126.324 16.7277C126.324 16.7277 126.324 16.7102 126.324 16.6928C126.324 16.6928 126.324 16.6753 126.324 16.6578C126.324 16.6578 126.324 16.6229 126.306 16.6229C126.306 16.6229 126.306 16.6229 126.306 16.6055C126.306 16.6055 126.306 16.588 126.288 16.5705C126.181 16.3959 126.037 16.2737 125.841 16.1864L116.289 11.7339C116.11 11.6466 115.895 11.6117 115.698 11.6117H115.68C115.484 11.6117 115.287 11.6466 115.09 11.7339L105.538 16.1864C105.359 16.2737 105.198 16.4134 105.091 16.5705C105.091 16.5705 105.091 16.6055 105.073 16.6055C105.073 16.6055 105.073 16.6055 105.073 16.6229C105.073 16.6229 105.073 16.6578 105.055 16.6578C105.055 16.6578 105.055 16.6753 105.055 16.6928C105.055 16.6928 105.055 16.7102 105.055 16.7277C105.055 16.7277 105.055 16.7626 105.055 16.7801C105.055 16.7801 105.055 16.7975 105.055 16.815C105.055 16.8324 105.055 16.8674 105.037 16.8848C105.037 16.9198 105.037 16.9372 105.037 16.9896C105.037 16.9896 105.037 17.0245 105.037 17.042C105.037 17.0594 105.037 17.0769 105.037 17.0944C105.037 17.0944 105.037 18.1944 105.037 18.2118Z" fill="url(#paint4_linear_1069_18998)"/>
<path d="M115.788 11.594C115.985 11.594 116.181 11.6289 116.378 11.7162L125.93 16.1687C126.306 16.3433 126.538 16.71 126.52 17.0941V18.2116V19.3291C126.52 19.364 126.52 19.3989 126.52 19.4339C126.52 19.4688 126.52 19.5037 126.52 19.5386C126.503 19.6608 126.449 19.7656 126.395 19.8704C126.538 19.5386 126.324 19.4862 125.948 19.3116L116.396 14.8591C116.217 14.7718 116.002 14.7369 115.806 14.7369C115.609 14.7369 115.412 14.7718 115.215 14.8591L105.663 19.3116C105.288 19.4862 105.091 19.5386 105.216 19.8704C105.162 19.7656 105.109 19.6608 105.091 19.5386C105.091 19.5037 105.091 19.4862 105.091 19.4339C105.091 19.3989 105.091 19.364 105.091 19.3291V18.2116V17.0941C105.091 16.6925 105.323 16.3258 105.681 16.1687L115.233 11.7162C115.412 11.6289 115.627 11.594 115.824 11.594" fill="url(#paint5_linear_1069_18998)"/>
</g>
<defs>
<linearGradient id="paint0_linear_1069_18998" x1="126.538" y1="6.63507" x2="105.037" y2="6.63507" gradientUnits="userSpaceOnUse">
<stop stop-color="#A9F39B"/>
<stop offset="1" stop-color="#00B100"/>
</linearGradient>
<linearGradient id="paint1_linear_1069_18998" x1="126.538" y1="4.13819" x2="105.037" y2="4.13819" gradientUnits="userSpaceOnUse">
<stop stop-color="#00B100"/>
<stop offset="1" stop-color="#A9F39B"/>
</linearGradient>
<linearGradient id="paint2_linear_1069_18998" x1="-2602.28" y1="12.4323" x2="-2602.46" y2="12.4323" gradientUnits="userSpaceOnUse">
<stop stop-color="#A9F39B"/>
<stop offset="1" stop-color="#00B100"/>
</linearGradient>
<linearGradient id="paint3_linear_1069_18998" x1="-2602.28" y1="9.93519" x2="-2602.46" y2="9.93519" gradientUnits="userSpaceOnUse">
<stop stop-color="#00B100"/>
<stop offset="1" stop-color="#A9F39B"/>
</linearGradient>
<linearGradient id="paint4_linear_1069_18998" x1="-2602.28" y1="18.2293" x2="-2602.46" y2="18.2293" gradientUnits="userSpaceOnUse">
<stop stop-color="#A9F39B"/>
<stop offset="1" stop-color="#00B100"/>
</linearGradient>
<linearGradient id="paint5_linear_1069_18998" x1="-2602.28" y1="15.7322" x2="-2602.46" y2="15.7322" gradientUnits="userSpaceOnUse">
<stop stop-color="#00B100"/>
<stop offset="1" stop-color="#A9F39B"/>
</linearGradient>
<clipPath id="clip0_1069_18998">
<rect width="126.538" height="70" fill="white"/>
</clipPath>
</defs>
</svg>
